<svg width="154" height="374" viewBox="0 0 154 374" fill="none" xmlns="http://www.w3.org/2000/svg">
<path d="M74.8191 374C100.714 374 121.706 367.831 121.706 360.221C121.706 352.611 100.714 346.442 74.8191 346.442C48.9243 346.442 27.9325 352.611 27.9325 360.221C27.9325 367.831 48.9243 374 74.8191 374Z" fill="#E0E0E0"/>
<path d="M130.85 78.1553C132.2 74.6529 132.733 69.2863 136.884 69.2863C137.322 69.2863 137.996 69.2597 137.996 70.3262C137.996 71.9115 137.273 73.6545 136.685 75.4513C139.746 74.2017 143.002 73.225 146.033 73.225C150.928 73.225 154 76.2984 154 77.0453C154 80.0077 145.356 79.5389 141.784 81.9859C141.047 83.6214 140.23 85.2493 139.513 86.9014C136.418 85.5502 132.726 84.2515 129.594 83.5565C129.998 81.7493 130.375 79.929 130.85 78.1553Z" fill="#F1B5A8"/>
<path d="M96.6721 179.924C96.2851 194.137 95.5343 209.348 94.372 230.097C95.9094 230.888 97.3924 231.484 98.8825 231.953L93.2838 352.364H92.4464C92.6074 352.421 101.511 356.293 107.934 357.985C109.07 358.285 108.647 360.221 107.482 360.221H93.9472L91.7729 358.636L91.1461 360.221H85.461C85.461 360.221 84.8153 355.71 85.9834 352.364L76.0327 253.717C81.0643 224.181 85.8991 195.772 88.3769 181.136C91.1629 180.852 93.9333 180.445 96.6721 179.924Z" fill="#33363E"/>
<path d="M74.4924 181.475C76.0733 181.564 77.6572 181.608 79.2414 181.608C82.2925 181.608 85.3436 181.445 88.3762 181.136C85.8987 195.772 81.0639 224.181 76.0319 253.716C67.881 301.562 59.2134 352.364 59.2134 352.364H58.7866H55.8581H52.9296H52.3993L49.6735 233.137C56.6182 232.543 64.6692 231.674 70.5939 230.973C72.0426 212.952 73.384 196.512 74.4924 181.475Z" fill="#40444D"/>
<path d="M77.8021 110.069C77.6672 109.833 77.5285 109.597 77.3924 109.36C77.1205 98.3911 76.3022 88.6619 74.7849 79.9642C75.9511 79.4515 77.3032 78.6134 78.5486 77.7577L81.8525 82.3735L80.0219 157.586L87.3685 169.342L93.2362 156.165L84.7454 81.335L87.0884 77.1745C88.7309 77.9418 90.4826 78.6186 91.7318 78.7309C92.995 88.4705 94.0538 98.1759 94.8812 107.902C94.7379 108.229 94.5941 108.544 94.4489 108.835C94.2908 109.152 94.4027 109.546 94.6992 109.715C94.7903 109.767 94.8886 109.791 94.985 109.791C95.0028 109.791 95.0196 109.786 95.037 109.784C96.3041 125.234 96.9885 140.747 96.9885 156.543C96.9885 164.541 96.8857 172.08 96.672 179.923C93.9333 180.444 91.1628 180.852 88.3762 181.135C85.3436 181.444 82.2925 181.608 79.2414 181.608C77.6572 181.608 76.0733 181.563 74.4923 181.474C76.5554 153.481 77.8079 130.362 77.4299 111.036C77.4885 111.02 77.5457 110.997 77.5996 110.962C77.8864 110.775 77.977 110.375 77.8021 110.069Z" fill="#F5F6F6"/>
<path d="M82.5253 74.7532L82.5164 74.7451C82.5291 74.7497 82.5379 74.7532 82.5379 74.7532L82.52 74.7577C82.5207 74.757 82.5253 74.7532 82.5253 74.7532Z" fill="#F5F6F6"/>
<path d="M71.0398 64.3187C71.0683 64.3094 71.0972 64.3004 71.1258 64.2907C71.119 64.3201 71.1123 64.3494 71.1056 64.3788L71.0398 64.3187Z" fill="#F5F6F6"/>
<path d="M89.8974 65.5106H89.8984L89.8979 65.5116L89.8974 65.5106Z" fill="#F5F6F6"/>
<path d="M91.7316 78.7308C90.4823 78.6189 88.7309 77.9418 87.0882 77.1745C84.6938 76.0562 82.5379 74.7531 82.5379 74.7531C82.5379 74.7531 88.7183 70.7587 89.9673 66.2444C89.9447 65.9942 89.9214 65.7531 89.8981 65.5113L89.8984 65.5109C90.5502 69.9278 91.1613 74.3326 91.7316 78.7308Z" fill="#ACE0F5"/>
<path d="M71.0363 64.6784C70.9801 64.5074 70.9258 64.3339 70.8686 64.1636L71.0392 64.3187L71.1054 64.3792C71.0825 64.479 71.0592 64.5785 71.0363 64.6784Z" fill="#ACE0F5"/>
<path d="M82.5202 74.7576C82.4662 74.8025 80.6641 76.3039 78.5483 77.758C77.3029 78.6141 75.9508 79.4522 74.7846 79.9645C73.9696 75.292 72.9524 70.9166 71.709 66.8085C75.2214 71.9482 82.1092 74.5928 82.5163 74.7455L82.525 74.7534C82.5253 74.7531 82.5208 74.7569 82.5202 74.7576Z" fill="#ACE0F5"/>
<path d="M89.9673 66.2444C88.7184 70.7587 82.538 74.7531 82.538 74.7531C82.538 74.7531 82.5289 74.7496 82.5166 74.7451C82.1096 74.5924 75.2215 71.9478 71.7093 66.8082C71.6288 66.5422 71.548 66.2769 71.4656 66.0133C78.2425 65.2342 84.5625 60.7856 88.4869 54.8558C88.9069 57.7354 89.4503 60.8643 89.8981 65.511C89.8981 65.5113 89.8981 65.5113 89.8981 65.5116C89.9214 65.7531 89.9447 65.9943 89.9673 66.2444Z" fill="#F1B5A8"/>
<path d="M71.4655 66.0133C71.3256 65.5648 71.182 65.1206 71.0362 64.6784C71.0595 64.5785 71.0824 64.479 71.1054 64.3792C71.1122 64.3498 71.1189 64.3204 71.1257 64.2911C71.2884 63.5801 71.4474 62.8674 71.5978 62.1516C71.8034 61.1721 71.9958 60.1879 72.1778 59.2009C72.5907 56.9615 72.9424 54.7038 73.2276 52.4323C75.6375 55.0396 78.7571 56.749 82.137 56.749C84.439 56.749 86.5887 55.9569 88.4538 54.6285C88.4648 54.7045 88.4752 54.7798 88.4865 54.8558C84.5622 60.7852 78.2424 65.2342 71.4655 66.0133Z" fill="#D4A094"/>
<path d="M88.9068 36.7709C88.1862 36.7709 87.5997 36.1442 87.5997 35.3742V30.3997C87.5997 29.6296 88.1858 29.0029 88.9068 29.0029H94.2601C94.5239 29.0029 94.7687 29.0883 94.9743 29.2323L95.1201 36.4172C94.8896 36.6345 94.5909 36.7706 94.2601 36.7706H88.9068V36.7709Z" fill="#F1B5A8"/>
<path d="M79.9964 36.7709H74.6427C73.922 36.7709 73.3355 36.1442 73.3355 35.3742V30.3997C73.3355 29.6296 73.9217 29.0029 74.6427 29.0029H79.9964C80.7171 29.0029 81.3033 29.6296 81.3033 30.3997V35.3742C81.3036 36.1446 80.7171 36.7709 79.9964 36.7709Z" fill="#F1B5A8"/>
<path d="M88.9068 27.7033C87.5153 27.7033 86.383 28.9131 86.383 30.4V31.1808H85.4005C85.448 30.92 85.5059 30.6595 85.5845 30.398C85.687 30.0563 85.5104 29.6901 85.1904 29.5809C84.8709 29.4717 84.5279 29.66 84.4257 30.002C84.3093 30.3904 84.2221 30.7842 84.1623 31.1811H82.5205V30.4004C82.5205 28.9131 81.3883 27.7036 79.9967 27.7036H74.6431C73.2515 27.7036 72.1193 28.9135 72.1193 30.4004V30.9238C71.8894 30.8367 71.6191 30.7331 71.3214 30.6187C72.4077 23.8177 74.4336 23.9911 75.9683 20.526C79.8713 23.314 84.8286 23.9922 89.6931 23.9922C91.448 23.9922 93.1871 23.9027 94.8641 23.7932V23.7946L94.9456 27.8066C94.7273 27.7406 94.4981 27.7029 94.2601 27.7029H88.9068V27.7033Z" fill="#F1B5A8"/>
<path d="M82.137 56.749C78.7571 56.749 75.6375 55.0396 73.2275 52.4323C72.9424 54.7038 72.5906 56.9615 72.1778 59.2008C72.5906 56.9615 72.9424 54.7038 73.2275 52.4323C70.7306 49.7307 68.9993 46.0645 68.5376 42.3241C65.5751 42.1258 63.8451 37.9224 63.7798 34.7077C63.7449 32.99 63.9123 31.2658 64.6837 30.315C65.0627 29.848 65.5868 29.5667 66.3058 29.5667C66.4452 29.5667 66.5832 29.5795 66.7199 29.5999C66.6501 29.9157 66.8073 30.2442 67.0992 30.3589C67.2903 30.4339 67.5515 30.5365 67.8561 30.6557C68.8648 32.8985 70.007 34.8767 70.7393 36.5122C70.8373 34.7333 70.9715 33.2232 71.1347 31.9284C71.5214 32.0763 71.8619 32.2051 72.1186 32.2998V35.3742C72.1186 36.8614 73.2508 38.0709 74.6423 38.0709H79.9961C81.3876 38.0709 82.5198 36.8611 82.5198 35.3742V32.4808H84.0678C84.0843 35.2025 85.5424 37.9666 86.6097 39.9876C87.0995 40.9156 87.6549 41.9675 87.6549 42.3344C87.6549 43.1097 86.6194 44.0456 85.6524 44.4332C85.3378 44.5593 85.1784 44.9341 85.2964 45.2703C85.3879 45.5315 85.6197 45.6924 85.866 45.6924C85.9368 45.6924 86.0093 45.679 86.0794 45.6507C87.2016 45.2008 88.8715 43.9468 88.8715 42.3344C88.8715 41.6255 88.3672 40.6706 87.6695 39.3488C86.6688 37.4536 85.3025 34.8629 85.2847 32.4805H86.3827V35.3738C86.3827 36.8611 87.5149 38.0706 88.9065 38.0706H94.2598C94.5734 38.0706 94.8725 38.0063 95.1499 37.8944L95.2061 40.6675C95.3167 46.1132 92.5835 51.6864 88.4535 54.6278C86.589 55.9568 84.439 56.749 82.137 56.749Z" fill="#F1B5A8"/>
<path d="M58.7867 352.364C58.852 352.573 61.4068 355.215 61.5384 358.691C61.5384 358.691 61.6913 360.221 60.2577 360.221C58.8242 360.221 56.0175 360.221 56.0175 360.221C56.0175 360.221 53.2112 360.221 51.7773 360.221C50.3434 360.221 50.4346 358.691 50.4346 358.691C50.4249 355.215 52.873 352.573 52.9296 352.364H55.8582H58.7867Z" fill="#33363E"/>
<path d="M71.0362 64.6783C71.1817 65.1202 71.3252 65.5648 71.4655 66.0132C71.548 66.2768 71.6288 66.5425 71.7093 66.8082C72.9527 70.9166 73.9699 75.292 74.7849 79.9642C76.3022 88.6619 77.1208 98.3911 77.3924 109.36C75.7937 106.583 74.128 103.805 72.5098 101.112C71.0879 98.7449 69.6198 96.301 68.2124 93.8796C69.6841 91.1548 71.1399 88.1979 72.0006 84.9857C72.0517 84.795 72.0184 84.5901 71.9107 84.4284C70.697 82.6136 69.3957 80.7806 67.9369 78.83C68.0921 76.8791 68.1128 74.942 68.1128 73.4548C68.1128 72.656 68.106 71.8559 68.0995 71.0544C68.0928 70.2543 68.0863 69.4528 68.0863 68.6506C68.0863 67.1295 68.1118 65.8961 68.1664 64.7695C68.1687 64.725 68.1665 64.6818 68.1606 64.6393C69.0349 64.498 69.9346 64.3429 70.8684 64.1632C70.9256 64.3339 70.9796 64.5073 71.0362 64.6783Z" fill="#DCE6F1"/>
<path d="M92.3986 66.0357C94.4522 70.681 96.0465 75.823 97.1389 81.3244C96.4267 82.3459 95.6915 83.3931 94.921 84.3759C94.7765 84.5604 94.739 84.8154 94.8237 85.0382C96.0733 88.3209 97.3274 90.9545 98.759 93.2995C97.5819 99.8121 96.2793 104.711 94.8813 107.902C94.0536 98.1759 92.9948 88.4705 91.7319 78.7309C91.1616 74.3327 90.5505 69.9279 89.8988 65.5106C90.697 65.5545 91.5166 65.617 92.3452 65.6979C92.3352 65.8101 92.3501 65.9262 92.3986 66.0357Z" fill="#DCE6F1"/>
<path d="M96.6721 179.924C96.8858 172.081 96.9886 164.541 96.9886 156.544C96.9886 140.747 96.3042 125.235 95.0371 109.785C95.2353 109.766 95.4219 109.649 95.5224 109.448C97.1845 106.119 98.6495 100.832 100.001 93.2854C100.031 93.1185 99.9983 92.9458 99.9104 92.8041C98.5198 90.562 97.3009 88.0452 96.0888 84.9083C96.8534 83.9123 97.577 82.8738 98.2786 81.8664C98.3827 81.7171 98.4218 81.5278 98.3863 81.3454C97.3006 75.7771 95.7057 70.5656 93.6514 65.8412C97.6646 66.3363 101.819 67.3513 105.146 69.3474C114.646 81.4138 118.799 98.9359 122.512 114.206C122.318 114.323 122.19 114.546 122.2 114.799C122.265 116.404 122.405 118.028 122.54 119.599L122.603 120.331C122.632 120.669 122.897 120.922 123.208 120.922C123.227 120.922 123.246 120.922 123.264 120.92C123.599 120.887 123.846 120.571 123.815 120.213L123.752 119.48C123.618 117.925 123.479 116.316 123.415 114.743C123.402 114.428 123.181 114.186 122.901 114.132C124.228 105.058 125.303 93.6985 128.483 83.3291C128.842 83.3944 129.215 83.4728 129.593 83.5565C132.725 84.2515 136.417 85.5499 139.512 86.9013C140.452 87.3114 141.339 87.726 142.135 88.1295C139.097 105.803 133.309 124.652 126.688 141.308C121.719 138.124 117.301 134.051 113.526 129.359C113.652 129.244 113.735 129.077 113.74 128.887C113.931 122.137 112.573 113.468 111.375 105.82C111.224 104.856 111.077 103.915 110.936 102.994C111.86 102.567 112.701 101.954 113.295 100.967C113.477 100.665 113.395 100.263 113.112 100.069C112.83 99.8739 112.453 99.9617 112.272 100.264C111.399 101.714 109.689 102.152 108.034 102.575C107.704 102.659 107.379 102.743 107.064 102.833C106.739 102.925 106.546 103.282 106.633 103.629C106.705 103.919 106.951 104.111 107.22 104.111C107.272 104.111 107.324 104.104 107.377 104.089C107.683 104.002 107.998 103.921 108.317 103.84C108.792 103.718 109.283 103.591 109.771 103.437C109.902 104.287 110.036 105.15 110.175 106.035C111.364 113.624 112.711 122.226 112.523 128.847C112.513 129.206 112.777 129.506 113.113 129.517C113.119 129.517 113.125 129.517 113.131 129.517C113.177 129.517 113.222 129.511 113.265 129.5C113.596 141.412 113.561 152.733 113.561 161.572C113.561 183.741 111.903 211.817 107.392 233.604C104.289 233.228 101.574 232.801 98.8813 231.954C97.3911 231.484 95.9081 230.889 94.3708 230.097C95.5344 209.348 96.2851 194.137 96.6721 179.924ZM102.032 177.447C103.019 182.895 104.865 187.903 106.831 192.98C106.928 193.231 107.155 193.382 107.394 193.382C107.472 193.382 107.55 193.366 107.626 193.332C107.937 193.195 108.085 192.815 107.956 192.483C106.015 187.47 104.192 182.529 103.227 177.201C103.163 176.848 102.844 176.618 102.514 176.686C102.184 176.754 101.969 177.095 102.032 177.447Z" fill="#DCE6F1"/>
<path d="M113.114 129.517C112.778 129.506 112.514 129.207 112.524 128.848C112.712 122.226 111.365 113.624 110.176 106.035C110.037 105.15 109.903 104.287 109.772 103.437C109.285 103.592 108.793 103.718 108.318 103.84C108 103.921 107.684 104.002 107.378 104.089C107.326 104.104 107.273 104.111 107.221 104.111C106.952 104.111 106.706 103.919 106.634 103.629C106.547 103.282 106.74 102.926 107.065 102.833C107.38 102.743 107.706 102.66 108.035 102.576C109.69 102.152 111.401 101.714 112.273 100.264C112.455 99.962 112.832 99.8743 113.114 100.069C113.396 100.263 113.478 100.665 113.297 100.967C112.703 101.955 111.861 102.567 110.937 102.994C111.079 103.916 111.225 104.856 111.376 105.821C112.574 113.469 113.932 122.138 113.741 128.888C113.736 129.078 113.653 129.245 113.527 129.359C113.453 129.427 113.365 129.477 113.267 129.501C113.224 129.511 113.179 129.518 113.133 129.518C113.127 129.517 113.12 129.517 113.114 129.517Z" fill="#A0BBD9"/>
<path d="M123.416 114.742C123.48 116.316 123.618 117.924 123.752 119.479L123.815 120.213C123.846 120.571 123.599 120.887 123.265 120.919C123.246 120.921 123.227 120.922 123.209 120.922C122.898 120.922 122.632 120.668 122.604 120.331L122.541 119.598C122.406 118.028 122.266 116.404 122.201 114.799C122.19 114.545 122.319 114.322 122.512 114.206C122.593 114.158 122.684 114.126 122.782 114.121C122.823 114.121 122.863 114.125 122.902 114.132C123.181 114.185 123.403 114.428 123.416 114.742Z" fill="#A0BBD9"/>
<path d="M68.0863 68.651C68.0863 69.4531 68.0931 70.2546 68.0996 71.0548C68.1064 71.8563 68.1129 72.6564 68.1129 73.4551C68.1129 74.9424 68.0922 76.8791 67.937 78.8304C69.3957 80.7806 70.6971 82.614 71.9108 84.4288C72.0184 84.5901 72.0517 84.7953 72.0006 84.986C71.1396 88.1986 69.6838 91.1555 68.2124 93.8799C69.6198 96.3013 71.0879 98.7452 72.5099 101.112C74.128 103.806 75.794 106.584 77.3924 109.361C77.5286 109.597 77.667 109.833 77.8021 110.069C77.977 110.376 77.8865 110.776 77.6 110.963C77.546 110.998 77.4885 111.021 77.4303 111.037C77.3818 111.05 77.3326 111.058 77.2838 111.058C77.0788 111.058 76.8787 110.948 76.7639 110.747C75.0504 107.747 73.2386 104.732 71.4863 101.815C69.9968 99.3357 68.4568 96.7722 66.9861 94.2337C66.8678 94.0299 66.8645 93.7725 66.9774 93.5648C68.4242 90.9057 69.8775 88.0234 70.7488 84.9283C69.5548 83.1536 68.2726 81.3554 66.8351 79.4401C66.7365 79.3085 66.6893 79.1413 66.7039 78.9737C66.8746 76.9876 66.8962 74.9814 66.8962 73.4555C66.8962 72.6609 66.8894 71.8646 66.883 71.0669C66.8762 70.2629 66.8697 69.4576 66.8697 68.6513C66.8697 67.1637 66.8943 65.9462 66.9457 64.831C66.9476 64.7885 66.9496 64.745 66.9515 64.7029C66.969 64.3446 67.2531 64.0748 67.5907 64.0872C67.8849 64.1038 68.1193 64.3405 68.161 64.6403C68.1668 64.6825 68.1691 64.726 68.1669 64.7706C68.1119 65.8965 68.0863 67.1298 68.0863 68.651Z" fill="#A0BBD9"/>
<path d="M98.3862 81.3451C98.4218 81.5271 98.3827 81.7165 98.2786 81.866C97.5767 82.8735 96.8531 83.912 96.0888 84.908C97.3012 88.0449 98.5198 90.5616 99.9103 92.8038C99.9983 92.9454 100.031 93.1182 100.001 93.285C98.6494 100.832 97.1845 106.118 95.5223 109.447C95.4218 109.649 95.2352 109.766 95.0371 109.784C95.0196 109.786 95.0028 109.792 94.985 109.792C94.8883 109.791 94.7904 109.767 94.6992 109.715C94.4027 109.546 94.2905 109.152 94.449 108.836C94.5941 108.545 94.738 108.23 94.8812 107.903C96.2792 104.712 97.5821 99.8124 98.759 93.2999C97.3274 90.9548 96.0733 88.3216 94.8237 85.0385C94.7389 84.8157 94.7761 84.5608 94.921 84.3763C95.6914 83.3934 96.4266 82.3466 97.1389 81.3247C96.0464 75.823 94.4522 70.6813 92.3985 66.0361C92.35 65.9265 92.3351 65.8105 92.3452 65.6982C92.3646 65.4771 92.4871 65.2722 92.6888 65.1703C92.9927 65.0169 93.3555 65.1558 93.4987 65.4805C93.5511 65.599 93.5996 65.722 93.6517 65.8412C95.7056 70.5652 97.3006 75.7767 98.3862 81.3451Z" fill="#A0BBD9"/>
<path d="M102.514 176.686C102.844 176.618 103.163 176.848 103.227 177.201C104.192 182.529 106.014 187.47 107.956 192.483C108.084 192.815 107.937 193.195 107.626 193.332C107.55 193.366 107.471 193.382 107.394 193.382C107.155 193.382 106.928 193.231 106.831 192.98C104.865 187.903 103.019 182.895 102.032 177.447C101.968 177.095 102.184 176.754 102.514 176.686Z" fill="#A0BBD9"/>
<path d="M56.8461 177.201C56.9102 176.848 57.2299 176.618 57.5591 176.686C57.8888 176.754 58.1048 177.095 58.0408 177.448C57.0541 182.895 55.2076 187.903 53.2416 192.981C53.1446 193.231 52.918 193.382 52.679 193.382C52.6014 193.382 52.5229 193.367 52.4466 193.333C52.1362 193.196 51.9884 192.816 52.1171 192.484C54.0586 187.47 55.8811 182.529 56.8461 177.201Z" fill="#A0BBD9"/>
<path d="M7.96727 73.5218C10.998 73.5218 14.2547 74.4984 17.3155 75.748C16.727 73.9512 16.0038 72.2079 16.0038 70.6226C16.0038 69.5561 16.6782 69.5827 17.116 69.5827C21.2666 69.5827 21.8001 74.9493 23.1496 78.4517C23.6251 80.2254 24.0015 82.0457 24.4063 83.8525C21.2741 84.5476 17.5819 85.8459 14.4865 87.1974C13.77 85.5453 12.9531 83.9178 12.2159 82.282C8.64432 79.835 1.33514e-05 80.3034 1.33514e-05 77.3413C1.33514e-05 76.5948 3.07236 73.5218 7.96727 73.5218Z" fill="#F1B5A8"/>
<path d="M25.5165 83.6255C28.6963 93.995 29.7706 105.353 31.0975 114.428C30.8126 114.48 30.5967 114.724 30.5838 115.039C30.5201 116.611 30.3817 118.218 30.2478 119.771L30.1845 120.51C30.1544 120.867 30.4008 121.184 30.7354 121.216C30.7542 121.218 30.7725 121.219 30.7913 121.219C31.1023 121.219 31.3678 120.965 31.3965 120.628L31.4599 119.89C31.5947 118.321 31.7347 116.699 31.7997 115.095C31.8098 114.842 31.6817 114.619 31.488 114.502C35.1948 99.2617 39.1948 82.4399 48.6942 70.3738C55.0431 66.2212 60.2306 65.853 66.9454 64.8304C66.8937 65.9455 66.8694 67.1633 66.8694 68.6506C66.8694 69.4569 66.8762 70.2622 66.8827 71.0662C66.8895 71.8639 66.8959 72.6602 66.8959 73.4548C66.8959 74.9807 66.874 76.9869 66.7036 78.973C66.6894 79.1406 66.7362 79.3078 66.8349 79.4394C68.272 81.3544 69.5545 83.1529 70.7485 84.9276C69.8772 88.0227 68.4239 90.905 66.9771 93.5641C66.8643 93.7718 66.8675 94.0292 66.9858 94.233C68.4562 96.7719 69.9965 99.335 71.486 101.814C73.2383 104.731 75.0498 107.747 76.7637 110.746C76.8784 110.947 77.0786 111.058 77.2836 111.058C77.3324 111.058 77.3815 111.049 77.43 111.036C77.808 130.362 76.5555 153.481 74.4924 181.475C73.3841 196.512 72.043 212.952 70.594 230.973C64.6693 231.674 56.6182 232.543 49.6736 233.137C47.4841 233.324 45.4036 233.484 43.5359 233.603C44.9998 209.519 47.8213 161.298 48.7217 117.759C48.7747 117.682 48.8139 117.593 48.8307 117.492C49.0506 116.177 49.2672 114.865 49.4835 113.554C50.0658 110.026 50.6687 106.385 51.3225 102.778C51.7557 102.818 52.1944 102.845 52.6444 102.845C52.939 102.845 53.2407 102.836 53.5417 102.819C53.8773 102.801 54.135 102.495 54.1172 102.136C54.0994 101.777 53.8129 101.497 53.4777 101.521C50.8491 101.669 48.5084 101.117 46.5469 99.8839C46.2569 99.7025 45.8843 99.8051 45.714 100.115C45.5439 100.424 45.6403 100.823 45.93 101.005C47.1951 101.8 48.5967 102.335 50.113 102.615C49.4631 106.205 48.864 109.823 48.2853 113.328C48.0693 114.638 47.8527 115.95 47.6331 117.263C47.5856 117.546 47.7195 117.817 47.9442 117.947C43.1214 127.615 36.0719 135.991 27.3112 141.604C20.6895 124.948 14.9016 106.099 11.8644 88.4256C12.6598 88.0217 13.547 87.6075 14.4865 87.1971C17.5815 85.8456 21.2741 84.5473 24.4063 83.8522C24.7843 83.7693 25.157 83.6908 25.5165 83.6255ZM52.4469 193.332C52.5232 193.366 52.6018 193.382 52.6794 193.382C52.9183 193.382 53.145 193.231 53.242 192.98C55.208 187.903 57.0544 182.895 58.0412 177.447C58.1052 177.095 57.8892 176.754 57.5594 176.686C57.2303 176.618 56.9102 176.848 56.8465 177.2C55.8814 182.529 54.0589 187.47 52.1178 192.483C51.9888 192.815 52.1366 193.195 52.4469 193.332Z" fill="#DCE6F1"/>
<path d="M31.7997 115.096C31.7347 116.699 31.5947 118.321 31.4599 119.89L31.3965 120.628C31.3677 120.965 31.1023 121.219 30.7912 121.219C30.7728 121.219 30.7541 121.218 30.7354 121.216C30.4007 121.184 30.1543 120.868 30.1844 120.51L30.2478 119.772C30.3816 118.218 30.52 116.611 30.5837 115.04C30.5967 114.724 30.8126 114.48 31.0974 114.428C31.1366 114.421 31.1767 114.418 31.218 114.418C31.3167 114.423 31.4075 114.454 31.488 114.503C31.6817 114.619 31.8101 114.842 31.7997 115.096Z" fill="#A0BBD9"/>
<path d="M88.9068 38.0713C87.5153 38.0713 86.3831 36.8614 86.3831 35.3745V32.4812H85.2851H84.0682H82.5201V35.3745C82.5201 36.8618 81.3879 38.0713 79.9964 38.0713H74.6427C73.2512 38.0713 72.119 36.8614 72.119 35.3745V32.3001C71.8626 32.2055 71.5221 32.0766 71.1351 31.9287C70.1164 31.5387 68.7837 31.0188 67.8564 30.6557C67.5519 30.5365 67.2907 30.4339 67.0996 30.3589C66.8076 30.2442 66.6502 29.9157 66.7204 29.5999C66.7259 29.5747 66.73 29.5491 66.7384 29.5242C66.8545 29.1874 67.2043 29.014 67.5192 29.1383C68.6382 29.5778 70.1762 30.1782 71.3211 30.6184C71.6185 30.7327 71.8888 30.836 72.119 30.9234V30.4C72.119 28.9128 73.2512 27.7032 74.6427 27.7032H79.9964C81.3879 27.7032 82.5201 28.9131 82.5201 30.4V31.1808H84.1619H85.4005H86.3831V30.4C86.3831 28.9128 87.5153 27.7032 88.9068 27.7032H94.2602C94.4978 27.7032 94.727 27.7409 94.9456 27.8069C96.0051 28.1268 96.7843 29.167 96.7843 30.4V35.3745C96.7843 36.5267 96.1037 37.5095 95.1503 37.8951C94.8729 38.0074 94.5738 38.0713 94.2602 38.0713H88.9068ZM81.3036 30.4C81.3036 29.63 80.7174 29.0033 79.9967 29.0033H74.6431C73.9224 29.0033 73.3359 29.63 73.3359 30.4V35.3745C73.3359 36.1446 73.9221 36.7713 74.6431 36.7713H79.9967C80.7174 36.7713 81.3036 36.1446 81.3036 35.3745V30.4ZM95.5673 35.3745V30.4C95.5673 29.9115 95.3307 29.4824 94.9744 29.2327C94.7688 29.0886 94.524 29.0033 94.2602 29.0033H88.9068C88.1862 29.0033 87.5997 29.63 87.5997 30.4V35.3745C87.5997 36.1446 88.1858 36.7713 88.9068 36.7713H94.2602C94.5909 36.7713 94.8897 36.6351 95.1202 36.4178C95.3921 36.1618 95.5673 35.7911 95.5673 35.3745Z" fill="#2A2847"/>
<path d="M87.6698 39.3492C88.3678 40.671 88.8719 41.6262 88.8719 42.3348C88.8719 43.9468 87.2019 45.2012 86.0797 45.651C86.0093 45.6793 85.9372 45.6928 85.8664 45.6928C85.62 45.6928 85.3882 45.5318 85.2967 45.2706C85.1787 44.9345 85.3381 44.5597 85.6527 44.4336C86.6197 44.0459 87.6552 43.1104 87.6552 42.3348C87.6552 41.9676 87.0998 40.9156 86.61 39.988C85.5427 37.9666 84.085 35.2025 84.0681 32.4812H85.285C85.3025 34.8632 86.6692 37.4539 87.6698 39.3492Z" fill="#D4A094"/>
<path d="M85.1903 29.5806C85.5104 29.6901 85.6869 30.0559 85.5844 30.3976C85.5062 30.6595 85.448 30.9196 85.4005 31.1805H84.1619C84.2217 30.7839 84.309 30.3897 84.4254 30.0014C84.5279 29.6597 84.8709 29.4714 85.1903 29.5806Z" fill="#D4A094"/>
<path d="M93.2356 156.165L87.3678 169.342L80.0214 157.586L81.8519 82.3735L78.548 77.7577C80.6638 76.3036 82.4659 74.8025 82.5198 74.7572L82.5376 74.7527C82.5376 74.7527 84.6935 76.0558 87.0879 77.1741L84.7442 81.3347L93.2356 156.165Z" fill="#40444D"/>
<path d="M89.6931 23.9922C84.8282 23.9922 79.8709 23.3137 75.9683 20.526C74.4335 23.9911 72.4073 23.8177 71.3213 30.6187C70.1765 30.1782 68.6385 29.5781 67.5195 29.1387C67.2043 29.0147 66.8548 29.1878 66.7388 29.5246C66.7304 29.5495 66.7261 29.575 66.7206 29.6003C66.5839 29.5799 66.4458 29.5671 66.3065 29.5671C65.5874 29.5671 65.0633 29.8483 64.6844 30.3154C62.3133 27.9078 60.4666 24.176 60.4666 20.2742C60.4666 15.9081 63.3165 6.73606 69.5512 6.73606C71.5263 6.73606 73.6129 7.45016 75.3937 8.53253C80.5389 5.48372 84.3174 0 91.4357 0C98.0099 0 101.644 5.76527 101.644 11.3969C101.644 18.0448 100.326 22.6952 95.3626 23.7075C95.361 23.7137 95.36 23.7196 95.3587 23.7258L95.4337 23.7572C95.2504 23.7697 95.0626 23.7807 94.8773 23.7928C94.8728 23.7935 94.8689 23.7945 94.8644 23.7952V23.7939C93.1871 23.9027 91.448 23.9922 89.6931 23.9922Z" fill="#40444D"/>
<path d="M71.1351 31.9287C70.9719 33.2236 70.8377 34.7336 70.7398 36.5125C70.0075 34.877 68.8652 32.8988 67.8564 30.656C68.7837 31.0188 70.1164 31.5387 71.1351 31.9287Z" fill="#40444D"/>
<path d="M47.6331 117.263C47.8526 115.95 48.0693 114.638 48.2853 113.329C48.864 109.823 49.4631 106.205 50.1129 102.615C48.5966 102.335 47.1951 101.8 45.93 101.005C45.6403 100.823 45.5436 100.425 45.7139 100.115C45.8847 99.8055 46.2572 99.7029 46.5468 99.8843C48.5084 101.118 50.8491 101.669 53.4776 101.521C53.8129 101.498 54.0993 101.778 54.1171 102.136C54.1349 102.495 53.8772 102.801 53.5416 102.82C53.2406 102.837 52.9386 102.845 52.6444 102.845C52.1944 102.845 51.7557 102.818 51.3224 102.779C50.6687 106.385 50.0661 110.027 49.4835 113.555C49.2672 114.865 49.0505 116.178 48.8307 117.492C48.8139 117.593 48.7744 117.682 48.7217 117.76C48.6092 117.924 48.4294 118.028 48.2325 118.028C48.1973 118.028 48.1611 118.024 48.1249 118.018C48.0592 118.005 47.9998 117.98 47.9442 117.947C47.7195 117.818 47.5856 117.547 47.6331 117.263Z" fill="#A0BBD9"/>
</svg>
